<svg width="512" height="512" viewBox="0 0 512 512" fill="none" xmlns="http://www.w3.org/2000/svg">
<path d="M203.738 143.312C204.965 144.47 205.906 145.654 206.831 147.062C207.101 147.472 207.372 147.881 207.651 148.303C207.935 148.736 208.218 149.169 208.51 149.616C209.101 150.51 209.692 151.404 210.284 152.298C210.566 152.725 210.848 153.152 211.139 153.592C212.294 155.332 213.483 157.046 214.678 158.759C218.72 164.562 222.663 170.434 226.62 176.295C229.388 180.396 232.161 184.493 234.953 188.578C236.989 191.559 239.014 194.548 241.037 197.538C243.926 201.807 246.821 206.071 249.75 210.313C250.816 211.862 251.876 213.415 252.938 214.968C255.13 218.175 257.329 221.377 259.531 224.577C260.098 225.402 260.665 226.226 261.231 227.051C262.954 229.559 264.678 232.065 266.411 234.566C267.759 236.511 269.103 238.459 270.443 240.41C270.633 240.686 270.823 240.962 271.019 241.247C271.945 242.594 272.87 243.942 273.794 245.29C275.741 248.128 277.699 250.958 279.668 253.78C282.442 257.757 285.184 261.749 287.847 265.801C287.295 267.038 286.681 267.877 285.711 268.818C285.452 269.072 285.193 269.327 284.926 269.589C284.515 269.987 284.515 269.987 284.096 270.394C282.223 272.235 280.397 274.073 278.702 276.081C277.909 276.982 277.065 277.819 276.21 278.662C274.84 280.016 273.548 281.407 272.293 282.869C270.708 284.695 269.063 286.471 267.432 288.257C265.759 286.756 264.613 284.957 263.375 283.102C261.578 280.443 259.752 277.811 257.863 275.217C255.259 271.637 252.719 268.016 250.188 264.385C248.998 262.677 247.803 260.973 246.609 259.268C245.17 257.212 243.731 255.157 242.293 253.1C238.574 247.782 234.852 242.467 231.068 237.194C229.647 235.213 228.258 233.212 226.883 231.198C225.285 228.858 223.649 226.549 221.984 224.257C218.535 219.507 215.186 214.689 211.839 209.868C211.552 209.455 211.265 209.042 210.97 208.617C210.421 207.825 209.872 207.034 209.324 206.242C207.499 203.611 205.631 201.014 203.738 198.432C201.92 200.107 200.611 201.967 199.247 204.021C197.443 206.698 195.609 209.346 193.71 211.957C191.372 215.173 189.071 218.413 186.784 221.666C186.186 222.515 185.587 223.364 184.987 224.212C182.791 227.318 180.604 230.429 178.424 233.545C176.643 236.092 174.858 238.637 173.065 241.175C172.867 241.457 172.668 241.738 172.463 242.028C171.453 243.457 170.442 244.886 169.431 246.314C167.253 249.391 165.095 252.479 162.965 255.589C161.427 257.832 159.862 260.056 158.29 262.277C156.71 264.51 155.137 266.749 153.569 268.99C153.331 269.331 153.093 269.671 152.847 270.022C152.118 271.065 151.389 272.107 150.66 273.15C146.936 278.476 143.201 283.793 139.449 289.099C138.848 289.95 138.247 290.8 137.646 291.651C137.445 291.934 137.245 292.218 137.039 292.51C135.939 294.067 134.844 295.628 133.753 297.191C131.443 300.501 129.123 303.8 126.75 307.064C124.927 309.569 123.156 312.105 121.416 314.668C119.678 317.228 117.9 319.746 116.056 322.231C113.735 325.368 111.518 328.579 109.291 331.784C109.065 332.106 108.839 332.429 108.606 332.761C108.477 332.995 108.348 333.229 108.215 333.47C107.724 334.292 107.254 334.952 106.564 335.619C105.26 335.9 104.372 335.984 103.072 335.943C102.552 335.944 102.552 335.944 102.021 335.944C100.879 335.942 99.7372 335.92 98.5948 335.898C97.8013 335.892 97.0078 335.888 96.2144 335.886C94.1286 335.875 92.0434 335.847 89.9579 335.815C87.8287 335.786 85.6994 335.773 83.5701 335.758C79.3941 335.728 75.2186 335.679 71.043 335.619C71.5464 334.326 72.0396 333.215 72.8532 332.089C73.0484 331.816 73.2437 331.543 73.4449 331.262C73.6544 330.974 73.8638 330.685 74.0797 330.387C74.5261 329.764 74.9721 329.141 75.4178 328.517C75.7556 328.045 75.7556 328.045 76.1002 327.563C77.0853 326.177 78.0457 324.774 79.0047 323.37C80.7274 320.853 82.4762 318.356 84.2379 315.867C88.1754 310.303 92.0697 304.708 95.9599 299.11C97.7624 296.518 99.5713 293.93 101.384 291.344C103.072 288.937 104.75 286.523 106.411 284.097C108.742 280.696 111.122 277.33 113.505 273.966C116.531 269.696 119.532 265.41 122.518 261.112C124.344 258.484 126.181 255.865 128.029 253.253C132.192 247.367 136.308 241.449 140.423 235.529C141.526 233.942 142.631 232.356 143.737 230.77C146.962 226.146 150.158 221.504 153.328 216.842C155.109 214.224 156.903 211.616 158.699 209.008C159.627 207.661 160.553 206.313 161.48 204.965C162.593 203.346 163.706 201.727 164.82 200.108C167.069 196.839 169.312 193.566 171.552 190.291C172.938 188.265 174.327 186.24 175.719 184.218C177.761 181.252 179.79 178.276 181.818 175.3C183.688 172.555 185.563 169.812 187.44 167.071C189.15 164.572 190.856 162.07 192.561 159.568C196.264 154.134 199.991 148.716 203.738 143.312Z" fill="white"/>
<path d="M424.745 144.878C425.58 144.887 426.415 144.894 427.25 144.899C429.434 144.917 431.616 144.965 433.799 145.02C436.032 145.07 438.266 145.092 440.499 145.117C444.871 145.169 449.242 145.253 453.612 145.356C453.612 145.626 453.612 145.895 453.612 146.173C453.343 146.173 453.074 146.173 452.796 146.173C452.635 146.534 452.635 146.534 452.47 146.903C451.958 147.845 451.427 148.446 450.66 149.19C450.401 149.445 450.142 149.699 449.875 149.961C449.601 150.227 449.327 150.492 449.045 150.766C447.181 152.598 445.364 154.428 443.678 156.426C442.484 157.777 441.178 159.018 439.896 160.284C439.055 161.137 438.263 162.003 437.485 162.913C436.384 164.201 435.22 165.397 434.014 166.588C432.818 167.77 431.661 168.957 430.569 170.237C429.4 171.605 428.15 172.877 426.869 174.141C425.606 175.388 424.371 176.641 423.22 177.994C421.792 179.67 420.232 181.198 418.666 182.744C417.278 184.122 415.973 185.542 414.705 187.032C413.602 188.276 412.406 189.424 411.223 190.591C410.43 191.395 409.688 192.217 408.955 193.076C407.777 194.452 406.519 195.734 405.23 197.005C403.703 198.512 402.256 200.057 400.864 201.69C399.646 203.055 398.327 204.319 397.026 205.605C396.184 206.457 395.392 207.324 394.614 208.233C393.192 209.897 391.642 211.415 390.086 212.953C388.992 214.061 387.981 215.218 386.97 216.401C385.856 217.652 384.653 218.81 383.461 219.986C382.659 220.799 381.908 221.631 381.166 222.498C380.056 223.794 378.884 224.999 377.67 226.198C376.473 227.381 375.316 228.567 374.225 229.847C373.055 231.216 371.805 232.488 370.525 233.752C369.253 235.007 368.01 236.27 366.85 237.631C365.69 238.991 364.448 240.254 363.175 241.509C361.92 242.748 360.693 243.992 359.552 245.337C358.251 246.864 356.843 248.266 355.418 249.675C353.337 251.732 353.337 251.732 351.386 253.911C349.718 255.881 347.852 257.659 346.019 259.474C344.48 261.005 343.005 262.556 341.604 264.216C340.44 265.533 339.171 266.746 337.912 267.972C336.806 269.105 335.772 270.283 334.735 271.479C333.506 272.877 332.226 274.225 330.946 275.576C330.368 276.188 329.79 276.8 329.212 277.412C328.773 277.876 328.773 277.876 328.326 278.35C326.943 279.813 325.563 281.28 324.183 282.747C323.644 283.32 323.104 283.893 322.565 284.466C321.427 285.675 320.29 286.885 319.155 288.096C318.864 288.405 318.574 288.715 318.275 289.033C317.725 289.619 317.175 290.206 316.626 290.792C315.168 292.345 313.689 293.868 312.169 295.36C311.496 296.047 310.872 296.762 310.25 297.497C308.911 299.054 307.474 300.494 306.014 301.937C304.606 303.329 303.213 304.712 301.931 306.224C300.65 307.736 299.257 309.118 297.849 310.511C296.449 311.895 295.063 313.268 293.791 314.773C292.209 316.641 290.449 318.329 288.71 320.05C287.242 321.508 285.848 322.994 284.512 324.575C283.29 325.943 281.971 327.213 280.666 328.502C279.263 329.894 277.929 331.322 276.657 332.838C276.334 333.205 276.334 333.205 276.005 333.58C275.624 334.1 275.624 334.1 275.236 334.631C273.332 336.112 271.634 335.898 269.285 335.866C268.806 335.868 268.328 335.87 267.834 335.872C266.508 335.875 265.181 335.868 263.854 335.858C262.423 335.849 260.991 335.852 259.56 335.854C257.081 335.855 254.601 335.848 252.122 335.837C248.537 335.82 244.952 335.815 241.367 335.812C235.551 335.808 229.735 335.794 223.919 335.775C218.269 335.756 212.619 335.742 206.97 335.733C206.621 335.733 206.273 335.732 205.914 335.732C204.167 335.729 202.42 335.726 200.673 335.724C186.179 335.703 171.685 335.667 157.191 335.621C157.65 334.898 158.109 334.176 158.568 333.453C158.952 332.849 158.952 332.849 159.343 332.234C160.059 331.114 160.795 330.013 161.557 328.924C161.813 328.557 162.069 328.189 162.333 327.811C162.599 327.432 162.864 327.054 163.137 326.664C163.419 326.26 163.701 325.857 163.991 325.441C164.854 324.206 165.718 322.973 166.582 321.739C167.104 320.993 167.626 320.247 168.148 319.501C168.857 318.489 169.565 317.478 170.274 316.466C170.487 316.163 170.7 315.86 170.919 315.548C171.131 315.259 171.342 314.971 171.561 314.674C172.339 313.566 172.339 313.566 172.946 312.238C174.867 308.675 174.867 308.675 176.777 307.967C179.238 307.494 181.741 307.647 184.232 307.729C185.075 307.737 185.918 307.743 186.76 307.746C188.571 307.759 190.381 307.787 192.192 307.828C195.06 307.892 197.927 307.914 200.796 307.93C207.922 307.974 215.047 308.075 222.172 308.185C227.707 308.271 233.242 308.34 238.779 308.366C241.626 308.38 244.47 308.426 247.316 308.495C249.094 308.532 250.871 308.541 252.65 308.542C253.468 308.549 254.286 308.566 255.104 308.596C258.595 308.719 261.613 308.778 264.416 306.471C266.116 304.876 267.595 303.129 269.064 301.324C269.579 300.725 270.098 300.129 270.619 299.534C270.847 299.273 271.076 299.011 271.312 298.742C272.03 297.937 272.779 297.174 273.555 296.425C274.617 295.38 275.622 294.315 276.592 293.184C277.928 291.628 279.367 290.198 280.826 288.758C281.893 287.676 282.878 286.539 283.866 285.387C284.845 284.285 285.892 283.26 286.952 282.237C287.994 281.165 288.965 280.041 289.946 278.913C291.129 277.568 292.357 276.266 293.587 274.964C294.128 274.389 294.668 273.815 295.209 273.24C295.48 272.952 295.75 272.665 296.029 272.369C297.251 271.068 298.469 269.763 299.686 268.457C301.17 266.864 302.657 265.274 304.148 263.688C306.783 260.887 309.412 258.089 311.935 255.187C310.235 252.711 308.28 250.664 306.146 248.569C304.684 247.13 303.303 245.656 301.974 244.091C300.989 242.971 299.918 241.942 298.855 240.895C298.084 240.113 297.364 239.306 296.649 238.473C295.6 237.252 294.503 236.107 293.357 234.977C291.957 233.596 290.654 232.167 289.375 230.675C288.366 229.541 287.282 228.489 286.201 227.425C285.161 226.369 284.203 225.253 283.238 224.13C282.554 223.359 281.844 222.633 281.108 221.911C280.115 220.935 279.184 219.931 278.276 218.875C277.288 217.728 276.267 216.644 275.188 215.583C273.852 214.267 272.619 212.894 271.397 211.473C270.505 210.466 269.552 209.533 268.592 208.591C267.863 207.85 267.182 207.087 266.504 206.299C265.057 204.634 263.561 203.023 262.046 201.42C261.509 200.849 260.972 200.278 260.435 199.707C260.171 199.425 259.906 199.144 259.633 198.853C251.507 190.194 251.507 190.194 251.507 189.044C256.891 188.901 262.275 188.793 267.661 188.726C270.162 188.694 272.662 188.651 275.163 188.582C277.58 188.515 279.996 188.478 282.414 188.463C283.332 188.451 284.251 188.429 285.169 188.396C292.722 188.134 292.722 188.134 295.368 190.372C296.629 191.627 297.71 192.979 298.74 194.428C299.497 195.47 300.362 196.398 301.242 197.337C301.813 197.975 302.383 198.613 302.952 199.251C303.564 199.932 304.177 200.612 304.789 201.292C305.699 202.303 306.609 203.314 307.517 204.326C309.183 206.182 310.859 208.029 312.547 209.867C314.535 212.031 316.505 214.212 318.467 216.399C319.08 217.08 319.692 217.76 320.305 218.441C321.214 219.451 322.124 220.462 323.032 221.474C324.723 223.358 326.425 225.229 328.139 227.091C329.716 228.805 331.259 230.54 332.758 232.323C334.073 231.756 334.813 231.129 335.718 230.026C337.478 227.947 339.404 226.063 341.348 224.157C342.965 222.558 344.494 220.917 345.978 219.194C346.902 218.142 347.884 217.173 348.885 216.195C350.413 214.69 351.859 213.143 353.25 211.511C354.469 210.145 355.789 208.88 357.091 207.594C357.924 206.75 358.707 205.894 359.475 204.993C360.645 203.624 361.895 202.352 363.175 201.088C364.448 199.833 365.69 198.57 366.85 197.21C368.01 195.849 369.253 194.586 370.525 193.331C371.788 192.084 373.023 190.831 374.174 189.477C375.603 187.801 377.164 186.272 378.729 184.726C380.099 183.366 381.384 181.964 382.635 180.493C383.777 179.216 385.005 178.026 386.224 176.823C387.551 175.507 388.785 174.144 389.997 172.723C391.216 171.357 392.535 170.092 393.837 168.806C394.67 167.962 395.453 167.106 396.222 166.205C397.571 164.626 399.035 163.175 400.512 161.718C401.857 160.384 403.113 159.002 404.341 157.562C405.083 156.724 405.862 155.94 406.659 155.155C407.695 154.135 408.676 153.098 409.619 151.991C409.844 151.741 410.069 151.491 410.3 151.233C411.188 150.236 411.188 150.236 412.066 149.031C415.646 144.558 419.32 144.702 424.745 144.878Z" fill="white"/>
<path d="M358.483 261.719C359.827 262.167 360.103 262.473 360.984 263.531C362.089 264.833 363.207 266.117 364.352 267.384C365.579 268.743 366.804 270.104 368.027 271.467C369.202 272.775 370.389 274.072 371.585 275.361C373.164 277.067 374.692 278.784 376.142 280.602C377.97 282.876 379.953 284.988 381.964 287.101C383.48 288.696 384.951 290.319 386.393 291.981C387.346 293.072 388.326 294.135 389.309 295.199C390.799 296.816 392.267 298.448 393.708 300.108C395.892 302.608 398.137 305.055 400.384 307.499C401.837 309.078 403.266 310.674 404.671 312.296C405.66 313.416 406.671 314.515 407.682 315.613C409.171 317.23 410.64 318.86 412.078 320.521C412.897 321.457 413.735 322.375 414.572 323.295C415.835 324.691 417.042 326.115 418.222 327.582C419.887 329.646 421.659 331.589 423.48 333.517C425.035 335.171 425.035 335.171 425.035 335.62C419.995 335.715 414.955 335.787 409.915 335.831C407.574 335.853 405.234 335.881 402.893 335.928C400.632 335.972 398.372 335.997 396.111 336.007C395.25 336.015 394.39 336.029 393.529 336.052C386.441 336.226 386.441 336.226 384.429 334.744C383.399 333.727 382.579 332.724 381.756 331.537C381.26 330.962 380.759 330.391 380.25 329.827C380.026 329.565 379.801 329.302 379.569 329.031C378.688 328.033 377.742 327.11 376.792 326.177C376.068 325.441 375.392 324.683 374.719 323.901C373.197 322.149 371.615 320.461 370.017 318.778C367.754 316.383 365.511 313.974 363.29 311.54C361.971 310.098 360.635 308.671 359.3 307.243C357.597 305.423 355.902 303.597 354.222 301.757C352.467 299.837 350.694 297.936 348.914 296.041C345.113 291.994 341.325 287.938 337.66 283.767C339.075 282.054 340.545 280.454 342.126 278.893C343.323 277.71 344.481 276.525 345.571 275.243C347.009 273.56 348.576 272.023 350.15 270.468C351.534 269.094 352.836 267.678 354.1 266.192C355.486 264.629 356.992 263.18 358.483 261.719Z" fill="white"/>
</svg>
